# xmcd CD database file
#
# Track frame offsets:
#	150
#	16250
#	36097
#	59812
#	76045
#	99166
#	113213
#	134743
#	159051
#	176946
#	198033
#	232760
#
# Disc length: 3241 seconds
#
# Revision: 0
# Processed by: cddbd v1.5PL3 Copyright (c) Steve Scherf et al.
# Submitted via: CDex 1.50beta8
#
DISCID=8d0ca70c
DTITLE=Joschi Schneeberger - Crazy Year!
DYEAR=2000
DGENRE=Jazz
TTITLE0=Jaci
TTITLE1=Calice Du Pape
TTITLE2=I'm Getting Sentimental Over You
TTITLE3=Diknu
TTITLE4=Dati
TTITLE5=Puppi
TTITLE6=Medley: One For Barbara/Waltz For Jenny
TTITLE7=Sandro and Celina
TTITLE8=Wirr Warr
TTITLE9=Samba For Deiserl
TTITLE10=Drei Vier'ln
TTITLE11=Two Thousand, A Cray Year!
EXTD=YEAR: 2000
EXTT0=
EXTT1=
EXTT2=
EXTT3=
EXTT4=
EXTT5=
EXTT6=
EXTT7=
EXTT8=
EXTT9=
EXTT10=
EXTT11=
PLAYORDER=
